<?xml version="1.0" standalone="no"?>
<!DOCTYPE svg PUBLIC "-//W3C//DTD SVG 20010904//EN"
 "http://www.w3.org/TR/2001/REC-SVG-20010904/DTD/svg10.dtd">
<svg version="1.0" xmlns="http://www.w3.org/2000/svg"
 width="700.000000pt" height="700.000000pt" viewBox="0 0 700.000000 700.000000"
 preserveAspectRatio="xMidYMid meet">
<metadata>
Created by potrace 1.14, written by Peter Selinger 2001-2017
</metadata>
<g transform="translate(0.000000,700.000000) scale(0.100000,-0.100000)"
fill="#000000" stroke="none">
<path d="M965 6984 c-152 -29 -277 -74 -400 -146 -45 -26 -39 -22 -125 -89
-224 -175 -372 -424 -424 -714 -21 -120 -22 -4952 -1 -5065 18 -91 34 -158 46
-185 4 -11 20 -49 34 -85 46 -116 148 -266 251 -367 106 -104 223 -180 394
-256 50 -22 184 -56 265 -66 82 -11 4987 -9 5025 2 14 4 34 9 45 11 472 97
851 498 913 966 10 74 9 4951 -1 5020 -20 142 -77 302 -154 431 -138 232 -368
414 -635 503 -171 57 -31 54 -2703 54 -2012 0 -2473 -3 -2530 -14z m1456
-1860 c18 -11 42 -35 54 -54 20 -34 20 -50 21 -990 1 -525 2 -960 3 -965 1
-12 465 -14 477 -3 4 4 7 436 7 960 0 747 3 959 13 983 19 45 55 74 105 83 24
4 229 7 455 6 387 0 413 -2 444 -20 18 -10 42 -32 54 -47 21 -28 21 -29 22
-988 1 -527 4 -965 7 -972 3 -9 60 -12 243 -12 l239 0 0 965 c0 949 1 966 20
1000 12 20 38 43 60 54 36 18 65 19 484 19 245 0 460 -2 477 -5 46 -8 80 -34
99 -75 16 -34 17 -144 17 -1569 l0 -1533 -22 -36 c-47 -75 104 -69 -1705 -69
-891 1 -1653 4 -1693 7 -228 20 -458 128 -633 299 -150 146 -257 330 -300 518
-6 25 -14 54 -17 65 -4 11 -8 530 -9 1152 -3 1111 -3 1134 16 1172 19 36 59
64 105 73 11 1 223 3 471 2 430 -1 454 -2 486 -20z"/>
</g>
</svg>
